<svg  width="26" height="26" xmlns="http://www.w3.org/2000/svg" viewBox="0 0 512 512"><defs><style>.cls-1{fill:#1976d2;}.cls-2{fill:#fafafa;}</style></defs><title>facebook</title><g id="Слой_2" data-name="Слой 2"><g id="Capa_1" data-name="Capa 1"><path class="cls-1" d="M448,0H64A64.06,64.06,0,0,0,0,64V448a64.06,64.06,0,0,0,64,64H448a64.06,64.06,0,0,0,64-64V64A64.06,64.06,0,0,0,448,0Z"/><path class="cls-2" d="M432,256H352V192c0-17.66,14.34-16,32-16h32V96H352a96,96,0,0,0-96,96v64H192v80h64V512h96V336h48Z"/></g></g></svg>