<svg width="26" height="26" xmlns="http://www.w3.org/2000/svg" xmlns:xlink="http://www.w3.org/1999/xlink" viewBox="0 0 512 512"><defs><style>.cls-1{fill:url(#Безымянный_градиент_3);}.cls-2{fill:url(#Безымянный_градиент_3-2);}.cls-3{fill:url(#Безымянный_градиент_3-3);}</style><linearGradient id="Безымянный_градиент_3" x1="-160.32" y1="302.69" x2="-147.25" y2="289.62" gradientTransform="translate(5177 -9221) scale(32)" gradientUnits="userSpaceOnUse"><stop offset="0" stop-color="#ffc107"/><stop offset="0.51" stop-color="#f44336"/><stop offset="0.99" stop-color="#9c27b0"/></linearGradient><linearGradient id="Безымянный_градиент_3-2" x1="-156.61" y1="298.98" x2="-150.95" y2="293.33" xlink:href="#Безымянный_градиент_3"/><linearGradient id="Безымянный_градиент_3-3" x1="-149.86" y1="292.23" x2="-149.1" y2="291.48" xlink:href="#Безымянный_градиент_3"/></defs><title>instagram</title><g id="Слой_2" data-name="Слой 2"><g id="Capa_1" data-name="Capa 1"><path class="cls-1" d="M352,0H160A160,160,0,0,0,0,160V352A160,160,0,0,0,160,512H352A160,160,0,0,0,512,352V160A160,160,0,0,0,352,0ZM464,352A112.12,112.12,0,0,1,352,464H160A112.12,112.12,0,0,1,48,352V160A112.12,112.12,0,0,1,160,48H352A112.12,112.12,0,0,1,464,160Z"/><path class="cls-2" d="M256,128A128,128,0,1,0,384,256,128,128,0,0,0,256,128Zm0,208a80,80,0,1,1,80-80A80.11,80.11,0,0,1,256,336Z"/><circle class="cls-3" cx="393.6" cy="118.4" r="17.06"/></g></g></svg>