<svg xmlns="http://www.w3.org/2000/svg" xmlns:xlink="http://www.w3.org/1999/xlink" viewBox="0 0 512 512"><defs><style>.cls-1{fill:url(#Безымянный_градиент_14);}.cls-2{fill:url(#Безымянный_градиент_14-2);}.cls-3{fill:url(#Безымянный_градиент_14-3);}.cls-4{fill:url(#Безымянный_градиент_14-4);}</style><linearGradient id="Безымянный_градиент_14" y1="256" x2="512" y2="256" gradientUnits="userSpaceOnUse"><stop offset="0" stop-color="#afcb1f"/><stop offset="1" stop-color="#ed811b"/></linearGradient><linearGradient id="Безымянный_градиент_14-2" x1="149.33" y1="165.33" x2="362.67" y2="165.33" xlink:href="#Безымянный_градиент_14"/><linearGradient id="Безымянный_градиент_14-3" x1="149.33" x2="362.67" xlink:href="#Безымянный_градиент_14"/><linearGradient id="Безымянный_градиент_14-4" x1="149.33" y1="346.67" x2="362.67" y2="346.67" xlink:href="#Безымянный_градиент_14"/></defs><title>menu-trigger</title><g id="Слой_2" data-name="Слой 2"><g id="Слой_1-2" data-name="Слой 1"><path class="cls-1" d="M256,512C114.84,512,0,397.16,0,256S114.84,0,256,0,512,114.84,512,256,397.16,512,256,512Zm0-480C132.48,32,32,132.48,32,256S132.48,480,256,480,480,379.52,480,256,379.52,32,256,32Z"/><path class="cls-2" d="M346.67,181.33H165.33a16,16,0,0,1,0-32H346.67a16,16,0,0,1,0,32Z"/><path class="cls-3" d="M346.67,272H165.33a16,16,0,0,1,0-32H346.67a16,16,0,0,1,0,32Z"/><path class="cls-4" d="M346.67,362.67H165.33a16,16,0,1,1,0-32H346.67a16,16,0,0,1,0,32Z"/></g></g></svg>